<svg width="17" height="10" viewBox="0 0 17 10" fill="none" xmlns="http://www.w3.org/2000/svg">
<path fill-rule="evenodd" clip-rule="evenodd" d="M11.77 0.0540883C11.684 0.0897967 11.6058 0.142131 11.54 0.208095C11.474 0.273891 11.4217 0.352055 11.386 0.438109C11.3503 0.524162 11.3319 0.616415 11.3319 0.709584C11.3319 0.802752 11.3503 0.895005 11.386 0.981059C11.4217 1.06711 11.474 1.14528 11.54 1.21107L14.5812 4.25116H0.708318C0.52046 4.25116 0.340297 4.32579 0.207462 4.45862C0.0746263 4.59146 0 4.77162 0 4.95948C0 5.14734 0.0746263 5.3275 0.207462 5.46033C0.340297 5.59317 0.52046 5.6678 0.708318 5.6678H14.5813L11.54 8.70791C11.407 8.84091 11.3323 9.0213 11.3323 9.2094C11.3323 9.39749 11.407 9.57788 11.54 9.71089C11.673 9.84389 11.8534 9.91861 12.0415 9.91861C12.2296 9.91861 12.41 9.84389 12.543 9.71089L16.7929 5.46098C16.8589 5.39518 16.9112 5.31702 16.9469 5.23097C16.9826 5.14491 17.001 5.05266 17.001 4.95949C17.001 4.86632 16.9826 4.77407 16.9469 4.68802C16.9112 4.60196 16.8589 4.5238 16.7929 4.458L12.543 0.208095C12.4772 0.142131 12.399 0.0897967 12.313 0.0540883C12.2269 0.01838 12.1347 0 12.0415 0C11.9483 0 11.8561 0.01838 11.77 0.0540883Z" fill="white"/>
</svg>
